<svg width="30" height="26" viewBox="0 0 30 26" fill="none" xmlns="http://www.w3.org/2000/svg">
<path fill-rule="evenodd" clip-rule="evenodd" d="M16.4157 0.25C17.1306 0.249774 17.8191 0.519742 18.3432 1.00579C18.8673 1.49183 19.1884 2.15803 19.242 2.87083L19.2491 3.08333V22.9167H20.6657V9.45833C20.6657 9.29255 20.7238 9.13199 20.8299 9.00463C20.9361 8.87727 21.0835 8.79118 21.2466 8.76133L21.3741 8.75H23.4991C24.2139 8.74977 24.9024 9.01974 25.4265 9.50579C25.9507 9.99183 26.2717 10.658 26.3253 11.3708L26.3324 11.5833V22.9167H27.7491C28.1102 22.9171 28.4575 23.0553 28.72 23.3032C28.9826 23.5511 29.1406 23.8898 29.1617 24.2503C29.1829 24.6108 29.0656 24.9657 28.8339 25.2426C28.6021 25.5195 28.2734 25.6974 27.9148 25.7401L27.7491 25.75H2.24908C1.888 25.7496 1.5407 25.6113 1.27814 25.3635C1.01558 25.1156 0.857582 24.7768 0.836421 24.4164C0.81526 24.0559 0.932537 23.701 1.16429 23.4241C1.39604 23.1472 1.72478 22.9692 2.08333 22.9266L2.24908 22.9167H3.66575V3.08333C3.66552 2.36852 3.93549 1.68003 4.42154 1.15589C4.90758 0.63175 5.57378 0.310695 6.28658 0.257084L6.49908 0.25H16.4157ZM13.5824 17.25H9.33241V20.0833H13.5824V17.25ZM13.5824 11.5833H9.33241V14.4167H13.5824V11.5833ZM13.5824 5.91667H9.33241V8.75H13.5824V5.91667Z" fill="#304443"/>
</svg>
