<svg width="92" height="92" viewBox="0 0 92 92" fill="none" xmlns="http://www.w3.org/2000/svg">
<path d="M69 60.375H74.75V74.75H69V60.375ZM57.5 46H63.25V74.75H57.5V46ZM31.625 74.75C27.8139 74.7454 24.1602 73.2295 21.4654 70.5346C18.7705 67.8398 17.2546 64.1861 17.25 60.375H23C23 62.0809 23.5058 63.7484 24.4536 65.1668C25.4013 66.5852 26.7483 67.6907 28.3244 68.3435C29.9004 68.9963 31.6346 69.1671 33.3077 68.8343C34.9807 68.5015 36.5176 67.68 37.7238 66.4738C38.93 65.2676 39.7515 63.7307 40.0843 62.0577C40.4171 60.3846 40.2463 58.6504 39.5935 57.0744C38.9407 55.4983 37.8352 54.1513 36.4168 53.2036C34.9984 52.2558 33.3309 51.75 31.625 51.75V46C35.4375 46 39.0938 47.5145 41.7897 50.2103C44.4855 52.9062 46 56.5625 46 60.375C46 64.1875 44.4855 67.8438 41.7897 70.5397C39.0938 73.2355 35.4375 74.75 31.625 74.75Z" fill="#DEDEDE"/>
<path d="M80.5 5.75H11.5C9.97547 5.75152 8.51382 6.35781 7.43582 7.43582C6.35781 8.51382 5.75152 9.97547 5.75 11.5V80.5C5.75152 82.0245 6.35781 83.4862 7.43582 84.5642C8.51382 85.6422 9.97547 86.2485 11.5 86.25H80.5C82.0243 86.2477 83.4855 85.6412 84.5633 84.5633C85.6412 83.4855 86.2477 82.0243 86.25 80.5V11.5C86.2485 9.97547 85.6422 8.51382 84.5642 7.43582C83.4862 6.35781 82.0245 5.75152 80.5 5.75ZM80.5 31.625H40.25V11.5H80.5V31.625ZM34.5 11.5V31.625H11.5V11.5H34.5ZM11.5 80.5V37.375H80.5L80.5058 80.5H11.5Z" fill="#DEDEDE"/>
</svg>
